<mxfile host="app.diagrams.net" modified="2024-03-04T08:12:28.419Z" agent="Mozilla/5.0 (Macintosh; Intel Mac OS X 10_15_7) AppleWebKit/537.36 (KHTML, like Gecko) Chrome/121.0.0.0 Safari/537.36" version="23.0.2" etag="QYJB3vCUnm2OnPmZ1NYT" type="github">
  <diagram name="Page-1" id="G5TG4eLdLc7dNTts0x5p">
    <mxGraphModel>
      <root>
        <mxCell id="0" />
        <mxCell id="1" parent="0" />
      </root>
    </mxGraphModel>
  </diagram>
</mxfile>
